<svg version="1.1" xmlns="http://www.w3.org/2000/svg" viewBox="0 0 234 234" width="234" height="234">
  <!-- svg-source:excalidraw -->
  
  <defs>
    <style>
      @font-face {
        font-family: "Virgil";
        src: url("https://excalidraw.com/Virgil.woff2");
      }
      @font-face {
        font-family: "Cascadia";
        src: url("https://excalidraw.com/Cascadia.woff2");
      }
    </style>
  </defs>
  <g transform="translate(10 10) rotate(0 107 107)"><path d="M28.209322458711046 35.12209384292943 C28.209322458711046 35.12209384292943, 28.209322458711046 35.12209384292943, 28.209322458711046 35.12209384292943 M28.209322458711046 35.12209384292943 C28.209322458711046 35.12209384292943, 28.209322458711046 35.12209384292943, 28.209322458711046 35.12209384292943 M15.259694540031994 57.0348312124369 C26.206685743521682 43.02112725514925, 34.909443270394824 33.84690399543659, 45.538132256729455 21.397444770609795 M16.321988579907263 55.030430031543716 C26.853708646307087 44.222050972065055, 37.44022249755873 31.887418199445694, 45.05994532526836 22.836076212053953 M8.337042417351508 69.29523741915385 C22.712506436476293 54.391032827768655, 35.25071023689013 39.083990855798596, 61.13667419248013 11.292914153561082 M9.674780130360627 69.23238208233873 C21.645180275292 56.44290659550253, 33.27000345655688 42.15941752773564, 61.907476008615774 8.667380837276664 M9.155523285202229 76.12554369077623 C25.155352684470333 57.76404563356359, 40.88847724499478 42.36861391428073, 69.11732240058635 9.161628145471024 M8.223298329792463 76.69472110599816 C27.250556149714182 54.103072336250065, 46.569343028099 31.973594179509497, 67.5952466618285 7.043642565354514 M6.374921206275616 83.62292607323846 C19.785654685962633 66.3950986226869, 34.49191468178143 50.902309385666776, 74.95616305254023 3.8377991075958136 M5.645515717456732 84.49057529689392 C22.135667349396876 64.58819371219808, 39.835030539897794 45.06907895813341, 75.99643818296116 4.958619655981195 M4.067936917206147 94.5047406311383 C27.61439548038483 65.74509870011366, 51.00393254372656 40.058746976814454, 80.67101841396678 5.620011024310443 M4.25497775655041 93.15309661806128 C32.09104924091977 62.642364464923986, 58.92723917574199 30.728567509004158, 81.37362381420124 3.0852857419692015 M4.002010741599847 102.12265218840523 C21.441968078954552 79.89605034003588, 42.07682436494081 56.30042440354037, 88.28809616351944 5.719414120658236 M2.9076257472420224 101.0645895418672 C29.753719449719302 67.88718228780328, 57.635212883047814 37.02817920930825, 87.4704184607647 3.599024446799355 M1.9529684160911884 110.74089180963698 C18.59030374861092 85.1858292742659, 40.515896631822976 63.717322114967025, 90.65257968278527 4.462629060123092 M0.9404426527285423 109.10976853134694 C19.629899316730942 87.17795988624293, 37.973131223250526 65.20329578475341, 91.9470689808011 2.7555335823930562 M1.203493322267228 113.24858015831751 C41.15245831109305 73.14051328133345, 78.44363557744285 27.974444714348735, 99.80591970839878 4.098261907302806 M1.2949253311595257 114.76308139842195 C39.36710127660613 71.689698715887, 75.2123065395617 29.506813094878495, 98.38274583750744 4.0723401117856 M4.264359109790917 120.72095203971287 C37.451920086423165 82.37871037279706, 69.80246593550422 41.6320062162422, 103.17218850598493 4.01864664657235 M3.863317158760424 120.02493384679576 C23.859223654433855 93.682759374509, 46.89069625191991 68.48229114677643, 104.0868972730712 1.9255426677894576 M4.997138044287269 125.11284143819806 C37.73366324480554 85.17867346684005, 69.93543359224248 49.99825007771395, 111.15202084116873 1.2645547623067444 M3.236316377718751 124.49017450928089 C32.90633582518529 91.47520869552672, 59.90535117235785 57.31231886831834, 109.31819027967987 2.4295211332171505 M6.23996489138127 130.0275198381481 C35.842434016789255 96.31988055501282, 61.65811789196685 61.95358143391698, 113.37261397957519 2.2751952388809755 M5.953839980221993 128.49193326868985 C37.53160777897833 89.99189168431656, 69.8750112634812 54.035418877728844, 115.15951059952096 1.5619366408811644 M4.057536916697934 134.46669622393802 C42.598216673682295 90.81574739331799, 80.21886501413003 51.13884582445124, 118.9377276868293 2.6382145606700647 M6.380023708457664 133.22662125783518 C35.14317517853257 100.26325582964606, 64.15086841233399 66.48259118066012, 121.39296272478197 1.2887315735940206 M7.991113885862248 140.58051707994275 C45.449739720893476 94.92158818267575, 81.02741130598854 53.10192918094465, 123.36556617057508 4.349115872494529 M6.578222054613249 138.8789308595293 C46.400710536475415 94.87385790943338, 86.59250542185504 48.927869935904184, 125.0627518396694 3.1985487246137367 M9.308518064499225 145.41756639053733 C41.06856176911378 107.80519300253206, 74.04278358892545 71.28120974391318, 128.7751322544185 3.033001498283852 M8.186008260876264 142.74683570658476 C50.47744272975029 93.29724596503567, 94.36199341631318 43.885803117470616, 130.28653799435176 4.099473816307295 M9.254134218233844 148.67486564009675 C56.273432170604245 91.67972588096498, 105.91270657541065 37.74070470308591, 132.19987320398457 4.222830422412997 M8.290174319434186 149.36659068181405 C33.3127498880166 118.7047801104122, 60.4066556105644 90.0392820964249, 134.1940819310165 4.6722929814871605 M12.611027670672158 150.93845465255046 C50.44189209166573 107.91886730952064, 89.57119020650678 65.25846911808857, 138.49373975590777 6.354708709479766 M10.613849030455569 151.1283127575841 C38.56148375070408 121.41588149444397, 63.97088306956441 92.07319268177326, 137.45830411286067 6.840783183188634 M12.014590129458114 153.961649072719 C41.76168166902805 120.00799094441719, 74.62827430750268 83.86410926227327, 143.20542223379417 9.499051183413613 M13.45514382814686 154.92923847715298 C60.86065864632408 101.96820095412284, 106.89574911626386 48.991706086810524, 142.7945208400528 8.87787389377867 M16.13889386021671 159.88678288497744 C59.97555623059277 108.50660390097497, 107.52780166057735 55.904537757170885, 144.8919963742782 7.638838908812303 M15.498506954695557 157.77046647333322 C65.9695020045425 100.99105255298389, 116.32199473989422 43.94560357651069, 146.89909007578981 10.058904576292534 M20.43267843520277 160.65292919966407 C68.1997181827107 108.25839378355795, 116.08723336308559 50.81110835579813, 151.84305425839534 9.4888011477438 M18.405227627360816 162.3478094605763 C50.59044940036995 123.31873683633587, 83.14101894850856 85.89025113637916, 150.904761715454 9.818484824987115 M20.4453275461494 165.0398396677434 C69.24516603109348 109.6718060519903, 120.28370223848356 53.20939496508526, 153.81352569846882 11.400972935284596 M20.598813919198772 165.38909233385633 C56.24373242065681 123.9410506943699, 93.80336496277968 82.77996772348007, 155.06100844469486 13.026860812438693 M21.253578481268505 168.5898051465446 C75.19290780094643 110.3105361533274, 127.10364154426713 49.04828159216479, 159.1019877890767 14.400308288879181 M22.5401633971349 170.05324213333776 C61.035467867753354 125.74558542845887, 100.11383004699894 81.68611475273609, 159.2170324207431 14.028110657435516 M25.981602634991052 172.67654465091601 C71.1677046703435 120.4145575547119, 115.68257352562073 68.55371239102772, 160.71076270938337 14.060360012852447 M25.295403157659056 173.67347835813882 C57.43895347315422 134.3839790012795, 91.36968184217358 97.69966732081197, 161.9871552825099 14.999921403613323 M28.70131089921745 177.94275028660118 C58.50097400747176 139.37196961537583, 90.7118935892183 105.04480683899811, 165.59333775627314 17.235639212189874 M26.6024986479159 176.0749317095113 C62.57301202334292 136.3133895761207, 98.96297573563118 95.36937923288208, 164.45369396720824 17.7879772600864 M31.439932276958746 181.10629360003426 C62.2595371148499 142.2304545937344, 94.56904623497402 104.54281245505861, 169.37699072178648 21.27484668856109 M30.441546282994576 180.17792935566 C58.706427112202384 145.32303030531648, 88.16023885335858 111.63598282610143, 167.64213127850027 19.492432620335347 M33.106194639671855 182.55867688767825 C79.74600989021528 126.78904176074204, 129.79831042708145 71.51786062121487, 172.99106917689198 22.448441468604923 M32.13785628158558 182.27173690526263 C81.43838214083277 127.43039020550971, 130.4716602914311 69.70854821780013, 171.10571298610188 22.92530863966872 M34.56250677678573 184.60214831322625 C73.67325857962123 143.51745357478956, 111.52036123356284 98.23657718633957, 172.94077495126436 25.52904617932876 M35.454321853038884 184.72883652926518 C78.46053207031973 134.18123518168227, 123.6413631991718 82.32544424936307, 173.47511408127775 25.376755856031565 M37.77024541219423 185.95758169873153 C82.99179460295444 132.5598804943282, 131.05186349030632 81.00250513591214, 175.61006067835376 29.47431489395393 M39.064267027271555 187.3009214966082 C86.61605777934726 133.069668733889, 134.84053338286134 78.21050829559832, 177.6344795154805 27.54379543972288 M41.3503897048598 188.8464869407493 C85.57328528437071 141.72119008214173, 127.42209189269099 91.43350577482097, 179.88144072227055 30.723727183646243 M42.34675553376436 189.2397755927751 C77.92308482279078 147.82478068787296, 114.87208823141783 105.61340645080787, 180.03017305684574 30.112604663273206 M45.22331033811284 191.2124194989606 C78.88269368410018 154.05150777540504, 113.321517855934 116.26703036741293, 184.39507698334603 33.5631435401804 M46.18018490691922 192.43399035209083 C95.36016234011024 135.8169490828583, 143.8384147251314 79.26499574858877, 182.90412590853884 33.87007952234063 M48.866475011758986 195.82653345489368 C95.73630171769834 135.873935293377, 147.1370963181709 78.78148645226005, 187.7650996015875 35.795845057621676 M49.09566906925122 194.96192666251207 C92.53970215598031 141.81894139880117, 138.3696401003079 90.56367506046794, 187.1357374934706 36.28408814734469 M52.59296068745939 197.70974519040405 C92.0287135141901 149.8076349707893, 135.60360386834444 99.79095932067727, 188.80463520135365 39.107570551119785 M51.76426485846189 196.50394365242957 C96.45995890250849 144.91505040860582, 140.47648539024755 95.19795196119216, 188.58671508035863 38.67211080046754 M56.058259057552426 200.5493907344346 C99.04712961458685 150.3584649059987, 144.25747217889148 96.14376981312628, 193.82196461212052 41.78022366150777 M55.171699929153846 199.19842060632266 C106.32065166461769 141.98660801735522, 158.08437822748542 84.52466697766974, 192.13373362563556 41.01759024501004 M59.54301769815014 200.5987746084482 C92.75397046280774 162.16533150040541, 125.79315497975793 124.63977473164088, 194.961814709746 46.30081970395529 M58.02556941740494 202.47000835700362 C106.18970456683853 147.72060472511455, 153.12505183417233 92.45639151815028, 194.9905069935937 44.60171891570943 M62.19265960478915 202.87180518090355 C95.42208764349466 163.9039802384739, 127.25962304031688 126.23998631813063, 196.5049712060596 50.55206400276951 M61.75349573167143 203.625125915677 C95.13181693399513 165.3227623879738, 128.69471818299328 127.5739734169294, 196.75071802293957 48.834821615218 M63.81501327677514 205.487725198715 C104.85312478089153 160.16221080692227, 146.46456004123448 115.24002246563117, 198.04372921105602 53.89753194828615 M64.88744154814776 205.54375262649177 C106.99566031945035 154.47031747234305, 151.01977703202445 106.23105548743196, 198.15229148205933 52.38261314908162 M70.41641780502339 207.57714948998319 C109.034322298875 163.41459677719334, 145.6020030339709 119.50908114238104, 201.43748435587668 57.99499752888147 M69.97622115170398 207.23063710941506 C117.27105630270562 151.1258347383699, 166.83316106436087 94.13744535998676, 200.62049210242506 56.02266316558655 M74.1334877804952 208.86312992925207 C103.81024057591117 172.00451334618626, 136.46412826713959 136.99372629466393, 201.8539445876499 60.53446381714576 M73.93788778121642 207.05556474307934 C113.93984887909434 162.42385390808113, 154.2325232398132 115.27746655761544, 202.4113359070738 60.37084372889632 M76.85221981892846 210.29680956138904 C116.50047547648961 164.0198350902004, 159.05934237291996 116.99960742399364, 204.82866664537502 64.3827566114824 M79.14680043126009 207.99754742144282 C125.34074678172496 155.146904505686, 172.238285188956 101.28724459411399, 204.18816255712224 64.60991256140282 M83.03314820745936 211.41050475749086 C127.236999921875 159.84181502077035, 172.89138564457667 108.99731924591116, 205.24610697281332 68.30454874893614 M82.70072574609867 209.04587241548012 C129.9295901528422 158.50034416124493, 173.617119717526 107.04184209784322, 206.6846888306436 68.0894080746729 M88.58472021171293 212.86217450193251 C124.97164136279602 166.5895258779307, 163.3983943090134 122.425914218294, 209.74165727760877 72.05315587432747 M87.29192446791969 210.31882585800375 C115.82717289996408 178.7642576989898, 143.23388505999327 146.92599460556008, 209.1990261618444 70.70656681196456 M89.89194559731416 211.45821527908902 C120.6086955247616 179.0952891760291, 149.68398197135474 149.0761942526584, 209.64544885437687 75.01620239180865 M91.81187608891062 212.4229751318262 C129.26798443317801 171.8243982020294, 165.31986315921603 128.81640889165783, 210.0716818219026 75.70777782586755 M96.72245565887857 211.1487514931126 C121.91024742967983 186.08718782462697, 147.60091281740807 157.66952624974334, 209.29599841076163 80.49387894620024 M95.88233788024951 211.82345928953723 C132.95371589549254 170.81444600056003, 168.61601916174106 131.16046043184303, 210.6242047450247 80.34184015963994 M101.8522671040501 213.7964737888238 C122.99456075658017 186.40044207479053, 147.83962067736203 156.99919325263886, 210.88262127036904 86.16597536143163 M101.10610877614278 213.98782737439484 C139.12424830982098 168.65556067088625, 178.5403415870589 123.60885417713688, 211.62659873137926 86.70199578564862 M104.5960771984538 215.15309115059756 C130.7404670005234 184.51869897925695, 155.31918444836867 155.32937809380573, 210.7590771988241 92.37013812187789 M104.22232451877798 215.73749051921152 C144.35194782040188 170.13568620203154, 183.89026619823704 124.02714096288021, 211.2359682731537 92.37918708670614 M108.36938182367668 215.09991174191794 C143.38729956794867 176.9399882448207, 173.62604457504705 141.2473157127068, 213.00568846175182 96.34245121191401 M110.29357571630463 215.8633027859088 C142.6025470903583 179.44160601625882, 173.10345015579293 145.03861203703374, 212.1836366125356 99.07763769562501 M118.37788518736268 212.94493870760533 C147.23355382801768 179.2629371720833, 177.7480899603131 141.71612230005806, 213.67933982477717 103.96743611591495 M116.02031755292917 214.79765696774456 C151.23087867712275 176.55721451085543, 183.02131760328473 138.2311987338468, 211.65014574171238 104.73985249521769 M121.80385399715587 214.64461269248034 C152.25672244075136 181.9285077048683, 181.23094133784295 148.33505158331494, 213.0634785535252 109.52805181825573 M121.55222396285816 214.21122710797692 C150.929766879113 179.84929691655032, 181.49160525049638 145.31415097223544, 213.1402564028716 109.6716176182967 M126.68035357666221 213.53497352047242 C158.09039696974185 175.84688943495985, 189.06255728272794 143.8320020303496, 211.26205538463037 116.21040438353415 M128.98742374626008 212.11913017897285 C156.94179638185062 178.58743773765218, 185.2643628999947 144.82872252418963, 211.70188905921023 115.42171002789732 M132.89277563352573 212.1193368364021 C158.53270842008422 186.8582845028388, 179.43165572313274 161.4922576439209, 208.4495245257367 123.8537469565707 M134.99902833734143 211.04360272399038 C161.38782707339928 179.47278082349268, 189.99486451732778 146.46475800797003, 209.8011238949348 124.90689751727756 M141.6773104913524 211.78061746419888 C163.44633204898378 187.73988706830195, 181.71876448622282 161.8430477481605, 209.05719782944067 132.1722222810721 M139.95860403627069 210.10132421539646 C159.5718425160465 190.22366419454886, 177.48665189931523 168.96558397136135, 207.13355498920424 134.00868122858162 M146.6224748577862 210.56900604868332 C158.67661156412754 194.4485136952378, 172.8969265820445 181.96460940080215, 204.77477256136729 142.54253934141337 M146.56269977725435 211.1660936964492 C170.05889194836274 183.52962260256376, 193.06741692559615 156.57416570547986, 205.25081808420612 141.73597229462206 M155.7599972593667 203.63132535222536 C171.07078055769895 189.40240681890864, 184.85917894615258 170.4930665147534, 204.11244945815108 152.24455420219223 M157.5487325633945 203.67318607795602 C167.07883252355225 194.23968410979663, 176.13594482768366 182.19130016119556, 202.74770864313743 150.84067267843406 M170.10122425878535 195.33818892075948 C177.6235468160912 187.38741053186268, 186.59236345194697 178.56881782087783, 202.5554639883505 155.4188837862243 M167.85639368394504 197.1215108042889 C178.45466005150138 185.33622961279127, 190.001253609276 172.2049222273362, 203.04171311111915 155.15028895127077" stroke="#15aabf" stroke-width="0.5" fill="none"></path><path d="M80.91533606218628 3.259223577234195 C92.8220649168988 -1.3385635921851433, 107.72193323694027 -0.5001221903243831, 120.93382224523691 1.2397886400111986 C134.14571125353353 2.9796994703467803, 148.65988245779002 7.379191333555274, 160.1866701119661 13.698688559247685 C171.71345776614217 20.018185784940098, 181.84220992751636 28.94316153265958, 190.09454817029342 39.156771994165666 C198.34688641307048 49.37038245567175, 205.93623482504307 62.249517438129864, 209.7006995686284 74.9803513282842 C213.46516431221374 87.71118521843854, 213.94620575205977 102.27553701325294, 212.68133663180535 115.54177533509169 C211.41646751155093 128.80801365693043, 207.736659478619 142.56131458213093, 202.1114848471019 154.57778125931665 C196.4863102155848 166.59424793650237, 188.60006227635972 178.64965425252427, 178.9302888427028 187.640575398206 C169.26051540904587 196.63149654388775, 156.84113843334055 204.20585781690835, 144.0928442451603 208.523308133407 C131.34455005698007 212.84075844990565, 115.72898267476215 214.03211409704056, 102.44052371362135 213.54527729719794 C89.15206475248054 213.05844049735532, 76.21086744794458 210.8729614528247, 64.36209047831548 205.6022873343513 C52.51331350868638 200.3316132158779, 40.815792665434785 191.60489010786392, 31.347861895846734 181.9212325863575 C21.879931126258683 172.23757506485106, 12.863061213083668 159.77695556676846, 7.554505860787188 147.50034220531273 C2.245950508490708 135.223728843857, -0.5714481458920749 121.51449129850951, -0.5034702179321471 108.26155241762316 C-0.4354922899722193 95.00861353673682, 3.174987894560071 80.17482749087922, 7.962373428546755 67.98270891999462 C12.749758962533438 55.79059034911002, 19.45756639242394 44.84611387952838, 28.220842985987957 35.10884099231555 C36.98411957955197 25.371568105102718, 50.62689534211081 15.192661341334144, 60.54203298993087 9.559071596717644 C70.45717063775092 3.925481852101143, 82.09995912783359 2.445782397133148, 87.7116688729083 1.3073025246165457 C93.32337861798302 0.16882265209994318, 93.93094350967102 0.9035827031436412, 94.21229146037915 2.728192361618028 M148.52360518804215 8.634485966559836 C161.0283837272718 12.042749519397475, 173.11312496638388 21.37805251052456, 182.6320451980509 30.63874364534344 C192.1509654297179 39.899434780162316, 200.47729765836655 51.95995570070698, 205.63712657804416 64.1986327754731 C210.79695549772177 76.43730985023922, 213.05062850762317 91.05143056811374, 213.59101871611648 104.07080609394018 C214.1314089246098 117.09018161976661, 213.169702900439 129.88254016236215, 208.879467829004 142.31488593043173 C204.589232757569 154.7472316985013, 196.80893360061998 168.39846312686268, 187.8496082875065 178.66488070235764 C178.89028297439302 188.9312982778526, 166.9959075703965 198.1590547542475, 155.12351595032314 203.91339138340143 C143.25112433024978 209.66772801255536, 129.91723261871908 212.1702215067975, 116.61525856706642 213.19090047728116 C103.31328451541376 214.21157944776482, 88.26239241908496 214.03696958260682, 75.31167164040717 210.03746520630344 C62.36095086172938 206.03796083000006, 48.89064810774354 197.35353287075574, 38.91093389499967 189.1938742194609 C28.931219682255808 181.03421556816605, 21.931372823387942 172.28364838169065, 15.433386363943967 161.07951329853438 C8.935399904499992 149.8753782153781, 1.9377411199018248 135.32843286531258, -0.0769848616641724 121.9690637205233 C-2.0917108432301696 108.60969457573401, -0.29394777305388464 93.8240647051177, 3.3450304745479826 80.92329842979865 C6.98400872214985 68.02253215447959, 13.84923948424725 55.25017991878346, 21.75688462394703 44.56446606860891 C29.66452976364681 33.87875221843436, 39.67670671958219 23.957005842978084, 50.79090131274666 16.809015328751357 C61.90509590591113 9.66102481452463, 75.38875174513346 3.930896710767511, 88.44205218293386 1.676522983248546 C101.49535262073427 -0.5778507442704188, 119.0456349060242 2.2833134497049272, 129.1107039395491 3.2827729636375693 C139.175772973074 4.282232477570211, 145.76127336382396 6.5647028126065505, 148.83246638408323 7.673280066844399 C151.9036594043425 8.781857321082247, 148.2951493131109 8.025318979440485, 147.5378620611047 9.93423648906466" stroke="#000000" stroke-width="1" fill="none"></path></g></svg>