<svg version="1.1" xmlns="http://www.w3.org/2000/svg" viewBox="0 0 268 164.8000030517578" width="268" height="164.8000030517578">
  <!-- svg-source:excalidraw -->
  
  <defs>
    <style>
      @font-face {
        font-family: "Virgil";
        src: url("https://excalidraw.com/Virgil.woff2");
      }
      @font-face {
        font-family: "Cascadia";
        src: url("https://excalidraw.com/Cascadia.woff2");
      }
    </style>
  </defs>
  <rect x="0" y="0" width="268" height="164.8000030517578" fill="#ffffff"></rect><g transform="translate(10 18.800010681152344) rotate(0 16.399993896484375 59.200008392333984)" stroke="none"><path fill="#1e1e1e" d="M 3.05,-1.66 Q 3.05,-1.66 4.56,0.79 6.06,3.25 7.31,5.82 8.56,8.38 10.05,11.97 11.54,15.55 12.76,18.79 13.99,22.03 15.73,28.59 17.47,35.15 18.79,39.18 20.12,43.22 21.18,48.65 22.24,54.08 23.11,60.05 23.98,66.03 24.78,70.33 25.57,74.62 26.37,79.74 27.16,84.86 27.55,88.94 27.95,93.03 29.17,97.47 30.38,101.92 31.48,105.49 32.57,109.06 33.25,111.09 33.93,113.12 34.48,114.34 35.02,115.56 35.35,116.03 35.68,116.51 35.84,117.07 36.01,117.62 35.98,118.20 35.96,118.78 35.75,119.32 35.54,119.85 35.17,120.30 34.80,120.74 34.31,121.05 33.82,121.35 33.25,121.48 32.69,121.61 32.11,121.56 31.54,121.50 31.01,121.26 30.48,121.03 30.06,120.63 29.64,120.24 29.36,119.73 29.08,119.22 28.98,118.66 28.88,118.09 28.97,117.51 29.06,116.94 29.32,116.43 29.59,115.92 30.00,115.51 30.42,115.11 30.94,114.86 31.46,114.61 32.04,114.54 32.61,114.48 33.18,114.59 33.74,114.71 34.24,115.00 34.74,115.30 35.12,115.73 35.50,116.17 35.72,116.71 35.94,117.24 35.98,117.82 36.01,118.39 35.87,118.95 35.72,119.51 35.40,119.99 35.08,120.48 34.62,120.83 34.17,121.19 33.62,121.38 33.07,121.57 32.50,121.57 31.92,121.58 31.37,121.40 30.82,121.22 30.35,120.88 29.89,120.53 29.89,120.53 29.89,120.53 28.36,115.60 26.83,110.68 25.90,107.05 24.97,103.42 23.59,98.48 22.21,93.55 21.90,89.66 21.60,85.76 20.75,80.75 19.90,75.73 18.99,71.35 18.08,66.96 17.10,61.16 16.12,55.36 15.00,50.41 13.89,45.46 12.25,41.31 10.61,37.15 8.62,30.93 6.63,24.71 5.59,21.69 4.54,18.67 2.84,15.11 1.14,11.55 0.29,9.20 -0.54,6.86 -1.80,4.26 -3.05,1.66 -3.21,1.27 -3.36,0.88 -3.42,0.47 -3.48,0.05 -3.43,-0.36 -3.39,-0.77 -3.25,-1.17 -3.10,-1.56 -2.87,-1.91 -2.64,-2.26 -2.33,-2.55 -2.02,-2.83 -1.65,-3.03 -1.28,-3.23 -0.88,-3.34 -0.47,-3.45 -0.05,-3.45 0.36,-3.46 0.77,-3.36 1.18,-3.27 1.55,-3.08 1.93,-2.89 2.25,-2.62 2.56,-2.35 2.81,-2.00 3.05,-1.66 3.05,-1.66 L 3.05,-1.66 Z"></path></g><g transform="translate(33.199951171875 73.19999694824219) rotate(0 47.600006103515625 -7.599998474121094)" stroke="none"><path fill="#1e1e1e" d="M -0.74,-3.53 Q -0.74,-3.53 3.65,-4.32 8.05,-5.11 15.12,-5.88 22.19,-6.66 27.04,-6.96 31.90,-7.26 36.86,-7.81 41.82,-8.37 47.58,-9.27 53.34,-10.18 57.10,-11.07 60.86,-11.96 66.28,-12.77 71.70,-13.57 74.43,-14.15 77.16,-14.72 80.27,-15.42 83.38,-16.12 85.42,-16.96 87.46,-17.81 90.73,-18.60 94.00,-19.40 94.70,-19.37 95.40,-19.34 96.05,-19.09 96.70,-18.84 97.24,-18.39 97.78,-17.95 98.15,-17.36 98.51,-16.76 98.67,-16.08 98.83,-15.40 98.76,-14.71 98.70,-14.01 98.41,-13.37 98.13,-12.74 97.65,-12.22 97.18,-11.71 96.57,-11.37 95.95,-11.04 95.26,-10.92 94.58,-10.80 93.89,-10.90 93.20,-11.01 92.57,-11.32 91.95,-11.64 91.47,-12.15 90.98,-12.65 90.68,-13.28 90.38,-13.91 90.29,-14.60 90.21,-15.29 90.35,-15.98 90.49,-16.66 90.85,-17.26 91.20,-17.87 91.73,-18.33 92.25,-18.78 92.90,-19.05 93.54,-19.32 94.24,-19.36 94.94,-19.41 95.61,-19.23 96.29,-19.05 96.87,-18.67 97.45,-18.28 97.88,-17.73 98.31,-17.18 98.54,-16.52 98.77,-15.86 98.78,-15.17 98.79,-14.47 98.58,-13.80 98.36,-13.14 97.95,-12.58 97.53,-12.02 96.96,-11.62 96.38,-11.22 95.71,-11.02 95.04,-10.83 95.04,-10.83 95.04,-10.83 92.40,-10.64 89.76,-10.46 87.22,-9.86 84.68,-9.26 81.34,-8.75 77.99,-8.23 75.28,-8.10 72.57,-7.97 67.36,-7.12 62.14,-6.27 58.20,-5.44 54.26,-4.60 48.39,-3.60 42.52,-2.61 37.44,-1.93 32.36,-1.26 27.65,-0.84 22.95,-0.41 16.19,0.50 9.42,1.43 5.08,2.48 0.74,3.53 0.31,3.56 -0.12,3.60 -0.55,3.53 -0.98,3.47 -1.38,3.30 -1.78,3.13 -2.13,2.87 -2.48,2.61 -2.76,2.28 -3.03,1.94 -3.22,1.55 -3.41,1.16 -3.50,0.73 -3.59,0.31 -3.57,-0.12 -3.56,-0.55 -3.44,-0.97 -3.32,-1.39 -3.11,-1.77 -2.89,-2.15 -2.59,-2.46 -2.29,-2.78 -1.93,-3.01 -1.56,-3.25 -1.15,-3.39 -0.74,-3.53 -0.74,-3.53 L -0.74,-3.53 Z"></path></g><g transform="translate(113.199951171875 10) rotate(0 38.4000244140625 72.4000015258789)" stroke="none"><path fill="#1e1e1e" d="M 2.40,-2.11 Q 2.40,-2.11 5.79,1.84 9.18,5.80 11.65,9.19 14.11,12.57 17.12,16.48 20.13,20.39 22.45,23.44 24.76,26.49 28.21,31.52 31.66,36.56 36.17,44.81 40.69,53.05 43.71,58.58 46.73,64.10 50.08,70.38 53.44,76.65 55.79,81.43 58.15,86.20 60.76,91.68 63.36,97.17 64.97,101.18 66.57,105.19 68.17,109.92 69.77,114.65 71.04,117.97 72.31,121.29 73.91,126.43 75.50,131.57 76.78,134.55 78.06,137.52 78.93,140.14 79.81,142.76 79.87,143.32 79.93,143.87 79.81,144.42 79.69,144.96 79.40,145.44 79.11,145.91 78.68,146.27 78.26,146.63 77.74,146.84 77.22,147.05 76.67,147.07 76.11,147.10 75.57,146.95 75.04,146.80 74.58,146.49 74.12,146.18 73.78,145.73 73.44,145.29 73.26,144.76 73.09,144.23 73.09,143.68 73.09,143.12 73.27,142.59 73.45,142.06 73.78,141.62 74.12,141.18 74.58,140.86 75.04,140.55 75.58,140.40 76.12,140.26 76.68,140.29 77.23,140.32 77.75,140.52 78.27,140.73 78.69,141.09 79.12,141.45 79.40,141.93 79.69,142.41 79.81,142.95 79.93,143.50 79.87,144.05 79.80,144.61 79.57,145.11 79.34,145.62 78.95,146.02 78.57,146.43 78.07,146.69 77.58,146.95 77.03,147.04 76.48,147.12 75.93,147.03 75.38,146.94 74.89,146.68 74.40,146.42 74.02,146.01 73.63,145.61 73.40,145.10 73.17,144.60 73.17,144.60 73.17,144.60 72.65,142.17 72.12,139.73 71.09,136.52 70.06,133.31 68.39,128.24 66.73,123.17 65.73,119.77 64.73,116.37 63.16,111.77 61.59,107.18 60.05,103.33 58.51,99.48 55.90,94.05 53.29,88.62 50.95,83.93 48.60,79.25 45.22,73.03 41.85,66.80 38.77,61.30 35.69,55.81 31.27,47.87 26.85,39.92 23.34,35.01 19.83,30.10 17.69,27.05 15.54,24.00 12.38,20.07 9.22,16.14 6.92,12.99 4.61,9.83 1.10,5.97 -2.40,2.11 -2.61,1.80 -2.83,1.48 -2.97,1.12 -3.11,0.75 -3.15,0.37 -3.20,-0.00 -3.15,-0.38 -3.10,-0.77 -2.96,-1.13 -2.83,-1.49 -2.61,-1.81 -2.39,-2.12 -2.10,-2.38 -1.81,-2.63 -1.47,-2.81 -1.12,-2.99 -0.75,-3.08 -0.37,-3.17 0.00,-3.17 0.39,-3.17 0.76,-3.08 1.14,-2.99 1.48,-2.81 1.82,-2.63 2.11,-2.37 2.40,-2.11 2.40,-2.11 L 2.40,-2.11 Z"></path></g><g transform="translate(214 81.19999694824219) rotate(0 22 29.599998474121094)" stroke="none"><path fill="#1e1e1e" d="M 2.89,-2.53 Q 2.89,-2.53 5.99,1.25 9.08,5.04 11.39,7.44 13.70,9.85 16.69,13.58 19.67,17.31 21.98,20.56 24.28,23.82 26.72,26.94 29.17,30.06 31.66,34.13 34.16,38.20 36.34,40.83 38.51,43.45 40.53,46.59 42.55,49.74 43.96,51.62 45.36,53.50 46.08,55.48 46.80,57.46 46.87,58.09 46.94,58.73 46.80,59.35 46.67,59.97 46.34,60.52 46.01,61.06 45.53,61.48 45.05,61.89 44.45,62.13 43.86,62.37 43.23,62.40 42.59,62.44 41.98,62.27 41.36,62.10 40.83,61.75 40.31,61.39 39.92,60.88 39.53,60.38 39.33,59.77 39.12,59.17 39.12,58.53 39.12,57.90 39.32,57.29 39.52,56.69 39.91,56.18 40.29,55.67 40.82,55.31 41.34,54.95 41.96,54.78 42.57,54.61 43.21,54.64 43.84,54.67 44.44,54.91 45.03,55.14 45.51,55.55 46.00,55.97 46.33,56.51 46.66,57.06 46.80,57.68 46.94,58.30 46.87,58.93 46.80,59.57 46.54,60.15 46.27,60.72 45.83,61.19 45.40,61.65 44.84,61.95 44.27,62.25 43.64,62.36 43.02,62.46 42.39,62.36 41.76,62.26 41.19,61.96 40.63,61.66 40.19,61.20 39.75,60.74 39.48,60.16 39.21,59.59 39.21,59.59 39.21,59.59 39.08,58.52 38.94,57.45 37.85,55.37 36.76,53.29 35.07,50.38 33.38,47.47 31.16,44.50 28.95,41.52 26.51,37.83 24.08,34.15 21.43,30.93 18.77,27.71 16.65,24.69 14.52,21.68 11.42,18.24 8.32,14.80 6.06,12.24 3.79,9.67 0.44,6.10 -2.89,2.53 -3.15,2.14 -3.41,1.76 -3.57,1.33 -3.73,0.89 -3.79,0.43 -3.84,-0.02 -3.78,-0.48 -3.72,-0.94 -3.56,-1.37 -3.39,-1.80 -3.12,-2.18 -2.86,-2.56 -2.51,-2.87 -2.16,-3.17 -1.75,-3.39 -1.34,-3.60 -0.89,-3.71 -0.43,-3.81 0.02,-3.81 0.48,-3.81 0.93,-3.70 1.38,-3.58 1.79,-3.36 2.20,-3.15 2.54,-2.84 2.89,-2.53 2.89,-2.53 L 2.89,-2.53 Z"></path></g><g transform="translate(219.5999755859375 64.39999389648438) rotate(0 0.00004999999998744897 0.00005000000000165983)" stroke="none"><path fill="#1e1e1e" d="M 3.14,-3.14 Q 3.14,-3.14 3.55,-2.55 3.97,-1.97 4.18,-1.28 4.40,-0.59 4.38,0.11 4.36,0.83 4.11,1.51 3.86,2.18 3.41,2.74 2.96,3.30 2.36,3.69 1.75,4.07 1.05,4.25 0.36,4.42 -0.35,4.36 -1.07,4.30 -1.73,4.02 -2.39,3.74 -2.92,3.26 -3.46,2.78 -3.81,2.15 -4.16,1.53 -4.30,0.82 -4.43,0.11 -4.34,-0.59 -4.24,-1.30 -3.92,-1.94 -3.60,-2.59 -3.09,-3.09 -2.59,-3.60 -1.94,-3.92 -1.30,-4.24 -0.59,-4.34 0.12,-4.43 0.82,-4.30 1.53,-4.16 2.15,-3.81 2.78,-3.46 3.26,-2.92 3.74,-2.39 4.02,-1.73 4.31,-1.07 4.36,-0.35 4.42,0.36 4.25,1.05 4.07,1.75 3.69,2.36 3.30,2.96 2.74,3.41 2.18,3.86 1.51,4.11 0.83,4.36 0.11,4.38 -0.60,4.40 -1.28,4.18 -1.97,3.97 -2.55,3.55 -3.14,3.13 -3.14,3.14 -3.14,3.14 -3.47,2.71 -3.80,2.29 -4.02,1.80 -4.24,1.32 -4.33,0.79 -4.43,0.26 -4.40,-0.26 -4.36,-0.80 -4.20,-1.31 -4.04,-1.82 -3.77,-2.28 -3.49,-2.73 -3.11,-3.11 -2.73,-3.49 -2.28,-3.77 -1.82,-4.05 -1.31,-4.20 -0.80,-4.36 -0.26,-4.40 0.26,-4.43 0.79,-4.33 1.32,-4.24 1.80,-4.02 2.29,-3.80 2.71,-3.47 3.14,-3.14 3.14,-3.14 L 3.14,-3.14 Z"></path></g></svg>